<?xml version="1.0" encoding="UTF-8" standalone="no"?>
<svg
   xmlns:dc="http://purl.org/dc/elements/1.1/"
   xmlns:cc="http://creativecommons.org/ns#"
   xmlns:rdf="http://www.w3.org/1999/02/22-rdf-syntax-ns#"
   xmlns:svg="http://www.w3.org/2000/svg"
   xmlns="http://www.w3.org/2000/svg"
   xmlns:sodipodi="http://sodipodi.sourceforge.net/DTD/sodipodi-0.dtd"
   xmlns:inkscape="http://www.inkscape.org/namespaces/inkscape"
   width="41.867"
   height="50.24"
   viewBox="0 0 41.867 50.24"
   version="1.1"
   id="svg5"
   sodipodi:docname="upload.svg"
   inkscape:version="0.92.5 (2060ec1f9f, 2020-04-08)">
  <metadata
     id="metadata11">
    <rdf:RDF>
      <cc:Work
         rdf:about="">
        <dc:format>image/svg+xml</dc:format>
        <dc:type
           rdf:resource="http://purl.org/dc/dcmitype/StillImage" />
      </cc:Work>
    </rdf:RDF>
  </metadata>
  <defs
     id="defs9" />
  <sodipodi:namedview
     pagecolor="#ffffff"
     bordercolor="#666666"
     borderopacity="1"
     objecttolerance="10"
     gridtolerance="10"
     guidetolerance="10"
     inkscape:pageopacity="0"
     inkscape:pageshadow="2"
     inkscape:window-width="826"
     inkscape:window-height="480"
     id="namedview7"
     showgrid="false"
     inkscape:zoom="4.6974521"
     inkscape:cx="20.9335"
     inkscape:cy="25.120001"
     inkscape:window-x="0"
     inkscape:window-y="27"
     inkscape:window-maximized="0"
     inkscape:current-layer="svg5" />
  <g
     id="Grupo_88"
     data-name="Grupo 88"
     transform="translate(-96 -64.002)"
     style="fill:#ffffff">
    <path
       id="Caminho_169"
       data-name="Caminho 169"
       d="M163.575,78.042l6.893-6.893v30.534a2.093,2.093,0,0,0,4.187,0V71.148l6.893,6.893a2.093,2.093,0,0,0,2.96-2.96L174.042,64.615a2.093,2.093,0,0,0-2.96,0L160.615,75.082a2.093,2.093,0,0,0,2.96,2.96Z"
       transform="translate(-55.628)"
       fill="#a5a5a5"
       style="fill:#ffffff" />
    <path
       id="Caminho_170"
       data-name="Caminho 170"
       d="M135.774,320a2.094,2.094,0,0,0-2.093,2.093v8.373a2.1,2.1,0,0,1-2.093,2.093H102.28a2.1,2.1,0,0,1-2.093-2.093v-8.373a2.093,2.093,0,0,0-4.187,0v8.373a6.286,6.286,0,0,0,6.28,6.28h29.307a6.286,6.286,0,0,0,6.28-6.28v-8.373A2.094,2.094,0,0,0,135.774,320Z"
       transform="translate(0 -222.505)"
       fill="#a5a5a5"
       style="fill:#ffffff" />
  </g>
</svg>
